<?xml version="1.0" encoding="utf-8"?>
<!-- Generator: Adobe Illustrator 24.0.1, SVG Export Plug-In . SVG Version: 6.00 Build 0)  -->
<svg version="1.1" id="Layer_1" xmlns="http://www.w3.org/2000/svg" xmlns:xlink="http://www.w3.org/1999/xlink" x="0px" y="0px"
	 viewBox="0 0 260.6 261" style="enable-background:new 0 0 260.6 261;" xml:space="preserve">
<style type="text/css">
	.Drop_x0020_Shadow{fill:none;}
	.Round_x0020_Corners_x0020_2_x0020_pt{fill:#FFFFFF;stroke:#231F20;stroke-miterlimit:10;}
	.Live_x0020_Reflect_x0020_X{fill:none;}
	.Bevel_x0020_Soft{fill:url(#SVGID_1_);}
	.Dusk{fill:#FFFFFF;}
	.Foliage_GS{fill:#FFDD00;}
	.Pompadour_GS{fill-rule:evenodd;clip-rule:evenodd;fill:#44ADE2;}
	.st0{fill:#FFFFFF;}
</style>
<linearGradient id="SVGID_1_" gradientUnits="userSpaceOnUse" x1="-176.1747" y1="-265.1656" x2="-175.4676" y2="-264.4585">
	<stop  offset="0" style="stop-color:#DEDFE3"/>
	<stop  offset="0.1783" style="stop-color:#DADBDF"/>
	<stop  offset="0.3611" style="stop-color:#CECFD3"/>
	<stop  offset="0.546" style="stop-color:#B9BCBF"/>
	<stop  offset="0.7324" style="stop-color:#9CA0A2"/>
	<stop  offset="0.9181" style="stop-color:#787D7E"/>
	<stop  offset="1" style="stop-color:#656B6C"/>
</linearGradient>
<g>
	<path class="st0" d="M118,220h14.9h65.2v-89.6c8.1-0.5,14.5-7,14.5-14.9h-31.1c0,0.2,0,0.4,0,0.5h0v63.5h-48.6H118H69.4V116h0
		c0-0.2,0-0.3,0-0.5H38.4c0,7.9,6.4,14.4,14.5,14.9V220H118z"/>
	<path class="st0" d="M161.2,130.4c8.6,0,15.6-6.7,15.6-15h-31.1C145.7,123.7,152.7,130.4,161.2,130.4z"/>
	<path class="st0" d="M125.5,130.4c8.6,0,15.6-6.7,15.6-15h-31.1C109.9,123.7,116.9,130.4,125.5,130.4z"/>
	<path class="st0" d="M89.7,130.4c8.6,0,15.6-6.7,15.6-15H74.1C74.1,123.7,81.1,130.4,89.7,130.4z"/>
	<path class="st0" d="M239.6,38.3c1.2-1.2,2.3-2.2,3.2-2.9c0.9-0.7,2.7-2.1,5.4-3.9c4.6-3.2,7.7-6.2,9.4-8.9
		c1.7-2.7,2.6-5.5,2.6-8.5c0-2.8-0.8-5.3-2.3-7.5c-1.5-2.2-3.6-3.9-6.2-5s-6.3-1.6-11-1.6c-4.5,0-8.1,0.6-10.7,1.7
		c-2.6,1.1-4.6,2.8-6,4.9c-1.4,2.1-2.4,5.1-2.9,8.9l13.5,1.1c0.4-2.7,1.1-4.6,2.2-5.7c1.1-1.1,2.5-1.6,4.2-1.6c1.7,0,3,0.5,4.1,1.6
		c1.1,1,1.6,2.3,1.6,3.8c0,1.4-0.6,2.8-1.7,4.3c-1.1,1.5-3.6,3.7-7.6,6.7c-6.5,4.8-10.9,8.9-13.2,12.4c-2.3,3.5-3.7,7.3-4.2,11.2
		h40.4v-11H239.6z"/>
	<polygon class="st0" points="233.6,243.7 17.3,243.7 17.3,27.4 201.1,27.4 201.1,10.1 0,10.1 0,261 250.9,261 250.9,68.9 
		233.6,68.9 	"/>
	<polygon class="st0" points="38.4,110.4 69.5,110.4 78.6,62.7 54.7,62.7 	"/>
	<polygon class="st0" points="139.9,62.7 111,62.7 109.9,110.4 141,110.4 	"/>
	<polygon class="st0" points="172.4,62.7 181.5,110.4 212.6,110.4 196.2,62.7 	"/>
</g>
</svg>
